<svg width="856" height="527" viewBox="0 0 856 527" fill="none" xmlns="http://www.w3.org/2000/svg">
<g filter="url(#filter0_d_58_4)">
<path d="M412.772 122.781L485.949 13.21H679.655L714.092 60.1689L520.386 64.0822L421.381 212.786L485.949 314.53H679.655L709.787 267.571L524.691 263.658L481.645 208.872" stroke="url(#paint0_linear_58_4)" stroke-width="24.4944"/>
</g>
<g filter="url(#filter1_d_58_4)">
<path d="M609.604 369.232C620.338 355.82 629.557 354.826 649.664 360.532C640.728 363.352 635.113 367.475 633.306 373.371C631.477 382.315 629.974 386.764 625.48 392.554C629.888 391.942 632.311 390.713 636.505 386.147C634.05 397.192 630.996 401.543 623.435 406.985C643.959 408.781 657.997 405.122 670.802 382.54C678.867 419.459 656.49 434.051 621.697 433.331C628.777 429.935 631.821 427.715 631.73 421.865C614.773 429.416 605.956 430.217 591.405 425.808C603.403 414.748 607.468 406.392 609.54 387.303C605.198 390.901 602.376 392.36 596.761 394.148C603.848 387.278 602.706 379.501 609.604 369.232Z" fill="#F2C31E" fill-opacity="0.785749" shape-rendering="crispEdges"/>
</g>
<g filter="url(#filter2_d_58_4)">
<path d="M480.811 0.25H190.185C179.194 10.0046 182.057 13.9626 190.185 20.515H253.683C264.749 30.5797 260.811 35.2871 253.683 43.675H198.733C192.418 49.5069 190.706 53.3796 198.733 63.94H220.713C228.282 70.3485 228.505 74.7322 220.713 84.205H142.561C134.437 95.0838 136.174 98.4491 142.561 103.023H282.99C291.432 112.065 291.904 117.141 282.99 126.182H248.799C239.492 133.531 238.542 137.651 248.799 145H314.739C322.205 151.856 321.459 156.774 314.739 166.713H105.927C95.9013 175.401 96.1249 179.826 105.927 186.977H256.125C267.82 197.774 265.421 202.486 256.125 210.137H169.426C161.784 216.752 161.062 220.802 169.426 228.955H286.653C292.469 235.946 292.304 240.622 286.653 250.668H220.713C212.538 258.93 211.867 262.85 220.713 268.038H262.231C269.69 279.402 268.528 284.796 264.673 294.092H234.145C225.259 303.583 228.763 306.858 234.145 312.91L322.066 310.015L372.271 86.92L421.681 87.73L480.811 0.25Z" fill="url(#paint1_linear_58_4)"/>
</g>
<g filter="url(#filter3_d_58_4)">
<path d="M626.252 207.718L696.855 281.899L734.72 246.715L698.738 209.607L626.252 207.718Z" fill="#53759E"/>
</g>
<g filter="url(#filter4_d_58_4)">
<path d="M79.2947 417.5C72.7067 419.93 66.0917 421.145 59.4497 421.145C52.8077 421.145 48.0017 419.822 45.0317 417.176C42.1157 414.53 40.6577 410.453 40.6577 404.945C40.6577 402.623 41.0357 399.194 41.7917 394.658C43.4117 385.262 46.2737 378.485 50.3777 374.327C54.4817 370.169 61.2857 368.09 70.7897 368.09C72.8417 368.09 75.4067 368.306 78.4847 368.738C81.5627 369.17 83.8307 369.656 85.2887 370.196L80.8337 382.589C76.7837 381.833 73.0577 381.455 69.6557 381.455C66.3077 381.455 63.9047 381.725 62.4467 382.265C60.9887 382.805 60.1247 383.885 59.8547 385.505L55.8857 408.428H60.9887C62.8247 408.428 64.1747 408.239 65.0387 407.861C65.9567 407.429 66.5507 406.484 66.8207 405.026L67.2257 402.839H63.3377L65.5247 390.446H84.0737L79.2947 417.5ZM39.5237 394.253C39.4157 394.685 39.3077 395.279 39.1997 396.035L7.36668 392.633H39.7667L39.5237 394.253ZM38.6327 400.409C38.4707 401.651 38.3897 402.785 38.3897 403.811L6.47568 400.409H38.6327ZM41.7107 384.857L40.7387 388.178L9.31068 384.857H41.7107ZM38.4707 408.185C38.6867 409.697 38.8757 410.831 39.0377 411.587L7.52868 408.185H38.4707ZM45.0317 377.081C44.2757 378.485 43.7357 379.565 43.4117 380.321L13.1177 377.081H45.0317ZM40.9007 416.042C41.6027 417.284 42.4127 418.283 43.3307 419.039L15.3047 416.042H40.9007ZM52.7267 369.305C51.1607 370.277 49.9457 371.168 49.0817 371.978L24.2957 369.305H52.7267ZM130.616 377.081C138.5 377.081 142.442 380.645 142.442 387.773C142.442 391.013 141.794 394.388 140.498 397.898C139.202 401.354 137.015 403.946 133.937 405.674L138.554 419.93H123.407L120.329 407.456H118.385L116.198 419.93H102.59L110.042 377.081H130.616ZM127.619 391.094C127.619 391.04 127.646 390.77 127.7 390.284C127.7 389.366 126.269 388.907 123.407 388.907H121.625L120.329 396.359H122.921C125.405 396.359 126.809 395.549 127.133 393.929L127.619 391.094ZM99.9174 419.687L65.5734 416.042H100.565L99.9174 419.687ZM102.671 404.054L68.3274 400.409H103.319L102.671 404.054ZM104.048 396.278L69.7044 392.633H104.696L104.048 396.278ZM105.425 388.502L71.0814 384.857H106.073L105.425 388.502ZM106.802 380.726L72.4584 377.081H107.369L106.802 380.726ZM101.294 411.83L66.9504 408.185H101.942L101.294 411.83ZM185.672 376.271C191.504 376.271 195.662 377.405 198.146 379.673C200.63 381.887 201.872 385.37 201.872 390.122C201.872 392.444 201.575 395.252 200.981 398.546C199.631 406.322 197.255 411.992 193.853 415.556C190.451 419.12 185.105 420.902 177.815 420.902C172.091 420.902 168.014 419.795 165.584 417.581C163.154 415.313 161.939 411.83 161.939 407.132C161.939 404.702 162.236 401.84 162.83 398.546C164.18 390.77 166.529 385.127 169.877 381.617C173.225 378.053 178.49 376.271 185.672 376.271ZM180.164 408.59C181.73 408.59 182.891 408.401 183.647 408.023C184.457 407.645 184.997 406.808 185.267 405.512L188.345 388.583H183.404C181.892 388.583 180.704 388.772 179.84 389.15C179.03 389.528 178.544 390.338 178.382 391.58L175.385 408.59H180.164ZM159.995 400.409C159.779 402.083 159.644 403.217 159.59 403.811L127.676 400.409H159.995ZM161.534 392.633L160.805 396.035L129.134 392.633H161.534ZM159.509 408.185C159.509 409.049 159.617 410.183 159.833 411.587L128 408.185H159.509ZM164.369 384.857C163.721 386.261 163.262 387.341 162.992 388.097L132.374 384.857H164.369ZM161.21 416.042C161.858 417.338 162.56 418.337 163.316 419.039L135.047 416.042H161.21ZM171.416 377.081C170.12 377.837 169.013 378.728 168.095 379.754L143.228 377.081H171.416ZM226.398 419.93V377.081H241.14V400.247H241.545L250.617 377.081H262.929V400.247H263.253L270.705 377.081H286.176L270.381 419.93H252.804L251.589 404.783H251.022L244.785 419.93H226.398ZM223.725 377.081V380.726L191.892 377.081H223.725ZM223.725 384.857V388.502L191.892 384.857H223.725ZM223.725 392.633V396.278L191.892 392.633H223.725ZM223.725 400.409V404.054L191.892 400.409H223.725ZM223.725 408.185V411.83L191.892 408.185H223.725ZM223.725 416.042V419.687L191.892 416.042H223.725ZM356.839 419.93H340.639L346.633 385.505H333.106L335.131 373.517L353.518 369.305H365.668L356.839 419.93ZM338.128 419.687L303.784 416.042H338.776L338.128 419.687ZM340.882 404.054L306.538 400.409H341.53L340.882 404.054ZM342.259 396.278L307.915 392.633H342.907L342.259 396.278ZM330.109 388.502L295.765 384.857H330.757L330.109 388.502ZM331.405 380.726L297.061 377.081H331.972L331.405 380.726ZM339.505 411.83L305.161 408.185H340.153L339.505 411.83ZM332.782 372.221L307.51 369.305H342.502L332.944 371.492L332.782 372.221ZM388.346 396.278L354.002 392.633H388.994L388.346 396.278ZM387.536 404.054L353.192 400.409H387.86C387.752 401.327 387.644 402.542 387.536 404.054ZM390.857 384.857L389.885 388.502L355.865 384.857H390.857ZM387.536 408.185C387.644 409.481 387.806 410.696 388.022 411.83L353.759 408.185H387.536ZM393.854 377.081C393.098 378.593 392.558 379.781 392.234 380.645L359.024 377.081H393.854ZM400.901 369.305C399.335 370.331 398.039 371.438 397.013 372.626L366.071 369.305H400.901ZM392.396 419.687L358.052 416.042H389.48C390.236 417.5 391.208 418.715 392.396 419.687ZM416.453 368.09C422.717 368.09 427.145 369.332 429.737 371.816C432.329 374.246 433.625 378.053 433.625 383.237C433.625 386.099 433.193 389.906 432.329 394.658C431.519 399.356 430.574 403.244 429.494 406.322C428.414 409.346 426.929 412.046 425.039 414.422C421.421 418.904 415.454 421.145 407.138 421.145C400.874 421.145 396.446 419.93 393.854 417.5C391.262 415.07 389.966 411.263 389.966 406.079C389.966 402.785 390.371 398.897 391.181 394.415C391.991 389.879 392.936 386.072 394.016 382.994C395.15 379.916 396.662 377.216 398.552 374.894C402.17 370.358 408.137 368.09 416.453 368.09ZM407.867 408.104C410.189 408.104 411.863 407.861 412.889 407.375C413.915 406.835 414.59 405.647 414.914 403.811L418.883 381.131H415.238C412.97 381.131 411.377 381.374 410.459 381.86C409.595 382.346 409.001 383.534 408.677 385.424L404.627 408.104H407.867ZM450.995 396.278L416.651 392.633H451.643L450.995 396.278ZM450.185 404.054L415.841 400.409H450.509C450.401 401.327 450.293 402.542 450.185 404.054ZM453.506 384.857L452.534 388.502L418.514 384.857H453.506ZM450.185 408.185C450.293 409.481 450.455 410.696 450.671 411.83L416.408 408.185H450.185ZM456.503 377.081C455.747 378.593 455.207 379.781 454.883 380.645L421.673 377.081H456.503ZM463.55 369.305C461.984 370.331 460.688 371.438 459.662 372.626L428.72 369.305H463.55ZM455.045 419.687L420.701 416.042H452.129C452.885 417.5 453.857 418.715 455.045 419.687ZM479.102 368.09C485.366 368.09 489.794 369.332 492.386 371.816C494.978 374.246 496.274 378.053 496.274 383.237C496.274 386.099 495.842 389.906 494.978 394.658C494.168 399.356 493.223 403.244 492.143 406.322C491.063 409.346 489.578 412.046 487.688 414.422C484.07 418.904 478.103 421.145 469.787 421.145C463.523 421.145 459.095 419.93 456.503 417.5C453.911 415.07 452.615 411.263 452.615 406.079C452.615 402.785 453.02 398.897 453.83 394.415C454.64 389.879 455.585 386.072 456.665 382.994C457.799 379.916 459.311 377.216 461.201 374.894C464.819 370.358 470.786 368.09 479.102 368.09ZM470.516 408.104C472.838 408.104 474.512 407.861 475.538 407.375C476.564 406.835 477.239 405.647 477.563 403.811L481.532 381.131H477.887C475.619 381.131 474.026 381.374 473.108 381.86C472.244 382.346 471.65 383.534 471.326 385.424L467.276 408.104H470.516ZM510.079 416.042L507.811 419.525L475.087 416.042H510.079ZM520.366 400.409L518.098 403.892L485.374 400.409H520.366ZM480.271 408.185H515.263L512.995 411.668L480.271 408.185ZM516.64 380.726L482.296 377.081H515.506L516.64 380.726ZM487.156 392.633H520.285L521.419 396.278L487.156 392.633ZM484.807 384.857H517.936L519.07 388.502L484.807 384.857ZM534.217 377.081L536.323 386.639H537.052L542.803 377.081H558.355L544.18 398.303L550.903 419.93H535.027L532.516 409.886H531.787L525.793 419.93H510.403L524.578 398.303L517.936 377.081H534.217Z" fill="#093B77"/>
</g>
<g filter="url(#filter5_d_58_4)">
<path d="M832.368 271.512L839.615 240.32L684.929 383.589L698.072 395.619L832.368 271.512Z" fill="black"/>
<path d="M832.368 271.512L839.615 240.32L684.929 383.589L698.072 395.619L832.368 271.512Z" fill="url(#paint2_linear_58_4)"/>
<path d="M843.468 223.887L849.299 198.391L819.809 203.39L655.719 354.928L678.231 376.716L843.468 223.887Z" fill="black"/>
<path d="M843.468 223.887L849.299 198.391L819.809 203.39L655.719 354.928L678.231 376.716L843.468 223.887Z" fill="url(#paint3_linear_58_4)"/>
<path d="M772.655 212.07L804.71 205.867L649.669 349.115L637.276 336.451L772.655 212.07Z" fill="black"/>
<path d="M772.655 212.07L804.71 205.867L649.669 349.115L637.276 336.451L772.655 212.07Z" fill="url(#paint4_linear_58_4)"/>
<path d="M642.246 295.935L668.234 295.824L618.089 341.74L593.228 340.899L642.246 295.935Z" fill="black"/>
<path d="M642.246 295.935L668.234 295.824L618.089 341.74L593.228 340.899L642.246 295.935Z" fill="url(#paint5_linear_58_4)"/>
<path d="M739.951 391.719L741.424 367.657L691.279 413.572L690.912 437.022L739.951 391.719Z" fill="black"/>
<path d="M739.951 391.719L741.424 367.657L691.279 413.572L690.912 437.022L739.951 391.719Z" fill="url(#paint6_linear_58_4)"/>
</g>
<g filter="url(#filter6_d_58_4)">
<path d="M792.222 307.718L754.397 342.74L776.762 366.619L849.018 369.593L792.222 307.718Z" fill="#53759E"/>
</g>
<defs>
<filter id="filter0_d_58_4" x="396.107" y="0.962791" width="348.282" height="338.774" filterUnits="userSpaceOnUse" color-interpolation-filters="sRGB">
<feFlood flood-opacity="0" result="BackgroundImageFix"/>
<feColorMatrix in="SourceAlpha" type="matrix" values="0 0 0 0 0 0 0 0 0 0 0 0 0 0 0 0 0 0 127 0" result="hardAlpha"/>
<feOffset dy="6.48"/>
<feGaussianBlur stdDeviation="3.24"/>
<feComposite in2="hardAlpha" operator="out"/>
<feColorMatrix type="matrix" values="0 0 0 0 0 0 0 0 0 0 0 0 0 0 0 0 0 0 0.25 0"/>
<feBlend mode="normal" in2="BackgroundImageFix" result="effect1_dropShadow_58_4"/>
<feBlend mode="normal" in="SourceGraphic" in2="effect1_dropShadow_58_4" result="shape"/>
</filter>
<filter id="filter1_d_58_4" x="584.926" y="357.239" width="94.0032" height="89.0769" filterUnits="userSpaceOnUse" color-interpolation-filters="sRGB">
<feFlood flood-opacity="0" result="BackgroundImageFix"/>
<feColorMatrix in="SourceAlpha" type="matrix" values="0 0 0 0 0 0 0 0 0 0 0 0 0 0 0 0 0 0 127 0" result="hardAlpha"/>
<feOffset dy="6.48"/>
<feGaussianBlur stdDeviation="3.24"/>
<feComposite in2="hardAlpha" operator="out"/>
<feColorMatrix type="matrix" values="0 0 0 0 0 0 0 0 0 0 0 0 0 0 0 0 0 0 0.25 0"/>
<feBlend mode="normal" in2="BackgroundImageFix" result="effect1_dropShadow_58_4"/>
<feBlend mode="normal" in="SourceGraphic" in2="effect1_dropShadow_58_4" result="shape"/>
</filter>
<filter id="filter2_d_58_4" x="92.0115" y="0.25" width="395.28" height="325.62" filterUnits="userSpaceOnUse" color-interpolation-filters="sRGB">
<feFlood flood-opacity="0" result="BackgroundImageFix"/>
<feColorMatrix in="SourceAlpha" type="matrix" values="0 0 0 0 0 0 0 0 0 0 0 0 0 0 0 0 0 0 127 0" result="hardAlpha"/>
<feOffset dy="6.48"/>
<feGaussianBlur stdDeviation="3.24"/>
<feComposite in2="hardAlpha" operator="out"/>
<feColorMatrix type="matrix" values="0 0 0 0 0 0 0 0 0 0 0 0 0 0 0 0 0 0 0.25 0"/>
<feBlend mode="normal" in2="BackgroundImageFix" result="effect1_dropShadow_58_4"/>
<feBlend mode="normal" in="SourceGraphic" in2="effect1_dropShadow_58_4" result="shape"/>
</filter>
<filter id="filter3_d_58_4" x="619.772" y="207.718" width="121.428" height="87.141" filterUnits="userSpaceOnUse" color-interpolation-filters="sRGB">
<feFlood flood-opacity="0" result="BackgroundImageFix"/>
<feColorMatrix in="SourceAlpha" type="matrix" values="0 0 0 0 0 0 0 0 0 0 0 0 0 0 0 0 0 0 127 0" result="hardAlpha"/>
<feOffset dy="6.48"/>
<feGaussianBlur stdDeviation="3.24"/>
<feComposite in2="hardAlpha" operator="out"/>
<feColorMatrix type="matrix" values="0 0 0 0 0 0 0 0 0 0 0 0 0 0 0 0 0 0 0.25 0"/>
<feBlend mode="normal" in2="BackgroundImageFix" result="effect1_dropShadow_58_4"/>
<feBlend mode="normal" in="SourceGraphic" in2="effect1_dropShadow_58_4" result="shape"/>
</filter>
<filter id="filter4_d_58_4" x="-0.0044136" y="368.09" width="564.84" height="66.015" filterUnits="userSpaceOnUse" color-interpolation-filters="sRGB">
<feFlood flood-opacity="0" result="BackgroundImageFix"/>
<feColorMatrix in="SourceAlpha" type="matrix" values="0 0 0 0 0 0 0 0 0 0 0 0 0 0 0 0 0 0 127 0" result="hardAlpha"/>
<feOffset dy="6.48"/>
<feGaussianBlur stdDeviation="3.24"/>
<feComposite in2="hardAlpha" operator="out"/>
<feColorMatrix type="matrix" values="0 0 0 0 0 0 0 0 0 0 0 0 0 0 0 0 0 0 0.25 0"/>
<feBlend mode="normal" in2="BackgroundImageFix" result="effect1_dropShadow_58_4"/>
<feBlend mode="normal" in="SourceGraphic" in2="effect1_dropShadow_58_4" result="shape"/>
</filter>
<filter id="filter5_d_58_4" x="586.748" y="198.391" width="269.031" height="251.591" filterUnits="userSpaceOnUse" color-interpolation-filters="sRGB">
<feFlood flood-opacity="0" result="BackgroundImageFix"/>
<feColorMatrix in="SourceAlpha" type="matrix" values="0 0 0 0 0 0 0 0 0 0 0 0 0 0 0 0 0 0 127 0" result="hardAlpha"/>
<feOffset dy="6.48"/>
<feGaussianBlur stdDeviation="3.24"/>
<feComposite in2="hardAlpha" operator="out"/>
<feColorMatrix type="matrix" values="0 0 0 0 0 0 0 0 0 0 0 0 0 0 0 0 0 0 0.25 0"/>
<feBlend mode="normal" in2="BackgroundImageFix" result="effect1_dropShadow_58_4"/>
<feBlend mode="normal" in="SourceGraphic" in2="effect1_dropShadow_58_4" result="shape"/>
</filter>
<filter id="filter6_d_58_4" x="747.917" y="307.718" width="107.581" height="74.8343" filterUnits="userSpaceOnUse" color-interpolation-filters="sRGB">
<feFlood flood-opacity="0" result="BackgroundImageFix"/>
<feColorMatrix in="SourceAlpha" type="matrix" values="0 0 0 0 0 0 0 0 0 0 0 0 0 0 0 0 0 0 127 0" result="hardAlpha"/>
<feOffset dy="6.48"/>
<feGaussianBlur stdDeviation="3.24"/>
<feComposite in2="hardAlpha" operator="out"/>
<feColorMatrix type="matrix" values="0 0 0 0 0 0 0 0 0 0 0 0 0 0 0 0 0 0 0.25 0"/>
<feBlend mode="normal" in2="BackgroundImageFix" result="effect1_dropShadow_58_4"/>
<feBlend mode="normal" in="SourceGraphic" in2="effect1_dropShadow_58_4" result="shape"/>
</filter>
<linearGradient id="paint0_linear_58_4" x1="563.432" y1="13.21" x2="563.432" y2="314.53" gradientUnits="userSpaceOnUse">
<stop stop-color="#0D74BD"/>
<stop offset="0.8" stop-color="#DB6736"/>
</linearGradient>
<linearGradient id="paint1_linear_58_4" x1="289.651" y1="283.963" x2="289.651" y2="29.1966" gradientUnits="userSpaceOnUse">
<stop stop-color="#DB6736"/>
<stop offset="0.978986" stop-color="#0D74BD"/>
</linearGradient>
<linearGradient id="paint2_linear_58_4" x1="726.086" y1="190.851" x2="710.945" y2="438.248" gradientUnits="userSpaceOnUse">
<stop stop-color="#F2C31E" stop-opacity="0.79"/>
<stop offset="0.3" stop-color="#DB6736"/>
</linearGradient>
<linearGradient id="paint3_linear_58_4" x1="726.086" y1="190.851" x2="710.945" y2="438.248" gradientUnits="userSpaceOnUse">
<stop stop-color="#F2C31E" stop-opacity="0.79"/>
<stop offset="0.3" stop-color="#DB6736"/>
</linearGradient>
<linearGradient id="paint4_linear_58_4" x1="726.086" y1="190.851" x2="710.945" y2="438.248" gradientUnits="userSpaceOnUse">
<stop stop-color="#F2C31E" stop-opacity="0.79"/>
<stop offset="0.3" stop-color="#DB6736"/>
</linearGradient>
<linearGradient id="paint5_linear_58_4" x1="726.086" y1="190.851" x2="710.945" y2="438.248" gradientUnits="userSpaceOnUse">
<stop stop-color="#F2C31E" stop-opacity="0.79"/>
<stop offset="0.3" stop-color="#DB6736"/>
</linearGradient>
<linearGradient id="paint6_linear_58_4" x1="726.086" y1="190.851" x2="710.945" y2="438.248" gradientUnits="userSpaceOnUse">
<stop stop-color="#F2C31E" stop-opacity="0.79"/>
<stop offset="0.3" stop-color="#DB6736"/>
</linearGradient>
</defs>
</svg>
