<svg width="28" height="28" viewBox="0 0 28 28" fill="none" xmlns="http://www.w3.org/2000/svg">
<path d="M21.4375 0H6.5625C2.93813 0 0 2.93813 0 6.5625V21.4375C0 25.0619 2.93813 28 6.5625 28H21.4375C25.0619 28 28 25.0619 28 21.4375V6.5625C28 2.93813 25.0619 0 21.4375 0Z" fill="url(#paint0_radial_33_122)"/>
<path d="M13.9385 3C10.9681 3 10.5952 3.01302 9.42863 3.06606C8.26422 3.11944 7.46939 3.30373 6.77398 3.57422C6.05452 3.85356 5.44431 4.2273 4.83641 4.83542C4.22795 5.44344 3.85422 6.05364 3.574 6.77278C3.30275 7.46841 3.11823 8.26356 3.06584 9.42742C3.01367 10.5941 3 10.9671 3 13.9376C3 16.9081 3.01313 17.2798 3.06606 18.4464C3.11966 19.6108 3.30395 20.4056 3.57422 21.101C3.85378 21.8205 4.22752 22.4307 4.83564 23.0386C5.44344 23.647 6.05364 24.0217 6.77256 24.301C7.46852 24.5715 8.26345 24.7558 9.42764 24.8092C10.5943 24.8622 10.9669 24.8752 13.9372 24.8752C16.9079 24.8752 17.2796 24.8622 18.4462 24.8092C19.6106 24.7558 20.4063 24.5715 21.1022 24.301C21.8214 24.0217 22.4307 23.647 23.0384 23.0386C23.6468 22.4307 24.0205 21.8205 24.3008 21.1013C24.5696 20.4056 24.7542 19.6106 24.8089 18.4466C24.8613 17.28 24.875 16.9081 24.875 13.9376C24.875 10.9671 24.8613 10.5943 24.8089 9.42764C24.7542 8.26323 24.5696 7.46852 24.3008 6.77311C24.0205 6.05364 23.6468 5.44344 23.0384 4.83542C22.43 4.22708 21.8216 3.85334 21.1016 3.57433C20.4043 3.30373 19.609 3.11933 18.4446 3.06606C17.2779 3.01302 16.9065 3 13.9351 3H13.9385ZM12.9573 4.97105C13.2485 4.97061 13.5735 4.97105 13.9385 4.97105C16.8589 4.97105 17.205 4.98155 18.3582 5.03394C19.4246 5.08272 20.0034 5.26089 20.389 5.41062C20.8994 5.60881 21.2633 5.84583 21.6459 6.22875C22.0287 6.61156 22.2656 6.97611 22.4644 7.48656C22.6141 7.87156 22.7925 8.45038 22.8411 9.51678C22.8935 10.6698 22.9048 11.0161 22.9048 13.9351C22.9048 16.8541 22.8935 17.2005 22.8411 18.3534C22.7923 19.4198 22.6141 19.9986 22.4644 20.3837C22.2662 20.8942 22.0287 21.2576 21.6459 21.6402C21.2631 22.023 20.8997 22.26 20.389 22.4583C20.0039 22.6086 19.4246 22.7864 18.3582 22.8352C17.2052 22.8875 16.8589 22.8989 13.9385 22.8989C11.018 22.8989 10.6718 22.8875 9.51886 22.8352C8.45245 22.7859 7.87364 22.6078 7.48777 22.458C6.97742 22.2597 6.61277 22.0228 6.22995 21.64C5.84714 21.2572 5.61023 20.8935 5.4115 20.3829C5.26177 19.9977 5.08337 19.4189 5.03481 18.3525C4.98242 17.1995 4.97192 16.8532 4.97192 13.9324C4.97192 11.0116 4.98242 10.6671 5.03481 9.51405C5.08359 8.44764 5.26177 7.86883 5.4115 7.48328C5.6098 6.97283 5.84714 6.60828 6.23006 6.22547C6.61288 5.84266 6.97742 5.60564 7.48787 5.40702C7.87342 5.25662 8.45245 5.07889 9.51886 5.02989C10.5278 4.98428 10.9189 4.97061 12.9573 4.96831V4.97105ZM19.7769 6.78711C19.0523 6.78711 18.4644 7.37445 18.4644 8.09917C18.4644 8.82378 19.0523 9.41167 19.7769 9.41167C20.5015 9.41167 21.0894 8.82378 21.0894 8.09917C21.0894 7.37456 20.5015 6.78667 19.7769 6.78667V6.78711ZM13.9385 8.32066C10.8366 8.32066 8.32164 10.8356 8.32164 13.9376C8.32164 17.0396 10.8366 19.5534 13.9385 19.5534C17.0405 19.5534 19.5546 17.0396 19.5546 13.9376C19.5546 10.8357 17.0403 8.32066 13.9383 8.32066H13.9385ZM13.9385 10.2917C15.952 10.2917 17.5844 11.9239 17.5844 13.9376C17.5844 15.9511 15.952 17.5835 13.9385 17.5835C11.9249 17.5835 10.2927 15.9511 10.2927 13.9376C10.2927 11.9239 11.9249 10.2917 13.9385 10.2917Z" fill="white"/>
<defs>
<radialGradient id="paint0_radial_33_122" cx="0" cy="0" r="1" gradientUnits="userSpaceOnUse" gradientTransform="translate(7.4375 30.1565) rotate(-90) scale(27.7501 25.8098)">
<stop stop-color="#FFDD55"/>
<stop offset="0.1" stop-color="#FFDD55"/>
<stop offset="0.5" stop-color="#FF543E"/>
<stop offset="1" stop-color="#C837AB"/>
</radialGradient>
</defs>
</svg>
