<svg width="28" height="28" viewBox="0 0 28 28" fill="none" xmlns="http://www.w3.org/2000/svg">
<path d="M25.9344 0.000106032H2.06557C1.52401 -0.00540552 1.00237 0.204147 0.615125 0.582784C0.227881 0.96142 0.00665832 1.47821 0 2.01976V25.9848C0.00786246 26.5256 0.229614 27.0412 0.616728 27.4188C1.00384 27.7965 1.52479 28.0054 2.06557 27.9999H25.9344C26.476 28.0042 26.9973 27.7939 27.3844 27.4151C27.7714 27.0362 27.9927 26.5195 28 25.9779V2.01288C27.9903 1.47291 27.7679 0.958587 27.3812 0.581689C26.9944 0.20479 26.4745 -0.00421366 25.9344 0.000106032Z" fill="#0076B2"/>
<path d="M4.23284 10.5573H8.38923V23.9306H4.23284V10.5573ZM6.31218 3.90161C6.7889 3.90161 7.25491 4.043 7.65125 4.3079C8.0476 4.57279 8.35647 4.94929 8.5388 5.38976C8.72113 5.83023 8.76871 6.31488 8.67554 6.78241C8.58237 7.24993 8.35263 7.67931 8.01538 8.01624C7.67813 8.35317 7.24852 8.5825 6.78091 8.67522C6.31329 8.76795 5.82868 8.7199 5.38839 8.53715C4.94809 8.35441 4.57188 8.04518 4.30736 7.64858C4.04284 7.25199 3.90189 6.78585 3.90234 6.30913C3.90295 5.67041 4.15711 5.05805 4.60898 4.60662C5.06085 4.15519 5.67345 3.90161 6.31218 3.90161ZM10.9964 10.5573H14.9807V12.3934H15.0358C15.5912 11.3422 16.9453 10.2337 18.9673 10.2337C23.1764 10.2245 23.9568 12.9947 23.9568 16.5864V23.9306H19.8004V17.4241C19.8004 15.875 19.7728 13.8806 17.6407 13.8806C15.5086 13.8806 15.146 15.5697 15.146 17.3231V23.9306H10.9964V10.5573Z" fill="white"/>
</svg>
