<svg width="35" height="28" viewBox="0 0 35 28" fill="none" xmlns="http://www.w3.org/2000/svg">
<path d="M7.95469 28.0001V13.5795L3.76078 9.488L0 7.21753V25.4552C0 26.8633 1.06984 28.0001 2.38646 28.0001H7.95469Z" fill="#4285F4"/>
<path d="M27.0449 27.9997H32.6132C33.9337 27.9997 34.9996 26.8587 34.9996 25.4548V7.21729L30.7399 9.81784L27.0449 13.5791V27.9997Z" fill="#34A853"/>
<path d="M7.95446 13.5796L7.38379 7.94507L7.95446 2.55225L17.5 10.1867L27.0456 2.55225L27.684 7.65392L27.0456 13.5796L17.5 21.2141L7.95446 13.5796Z" fill="#EA4335"/>
<path d="M27.0449 2.55196V13.5793L34.9996 7.21741V3.82432C34.9996 0.677321 31.6308 -1.11669 29.2724 0.77063L27.0449 2.55196Z" fill="#FBBC04"/>
<path d="M0 7.21748L3.65851 10.1436L7.95469 13.5794V2.55202L5.72724 0.770696C3.3647 -1.11677 0 0.677387 0 3.82424V7.21748Z" fill="#C5221F"/>
</svg>
