<svg width="103" height="64" viewBox="0 0 103 64" fill="none" xmlns="http://www.w3.org/2000/svg">
<g filter="url(#filter0_d_21_713)">
<path d="M49.6562 14.7037L58.4376 1.55518H81.6823L85.8146 7.19025L62.57 7.65984L50.6893 25.5042L58.4376 37.7136H81.6823L85.2981 32.0785L63.0865 31.6089L57.921 25.0347" stroke="url(#paint0_linear_21_713)" stroke-width="2.93933"/>
</g>
<g filter="url(#filter1_d_21_713)">
<path d="M73.2761 44.2779C74.5641 42.6685 75.6704 42.5492 78.0833 43.2339C77.011 43.5723 76.3371 44.0671 76.1203 44.7746C75.9008 45.8479 75.7205 46.3818 75.1811 47.0766C75.7101 47.0031 76.0009 46.8557 76.5041 46.3078C76.2096 47.6331 75.843 48.1553 74.9358 48.8083C77.3986 49.0239 79.0833 48.5848 80.6197 45.8748C81.5876 50.3052 78.9024 52.0562 74.7272 51.9698C75.5768 51.5623 75.9421 51.2958 75.9311 50.5939C73.8963 51.5 72.8383 51.5961 71.0922 51.067C72.5319 49.7399 73.0198 48.7371 73.2684 46.4464C72.7474 46.8782 72.4087 47.0533 71.7349 47.2679C72.5854 46.4434 72.4482 45.5102 73.2761 44.2779Z" fill="#F2C31E" fill-opacity="0.785749" shape-rendering="crispEdges"/>
</g>
<g filter="url(#filter2_d_21_713)">
<path d="M57.8208 0H22.9456C21.6267 1.17056 21.9703 1.64551 22.9456 2.4318H30.5654C31.8933 3.63956 31.4207 4.20445 30.5654 5.211H23.9713C23.2135 5.91082 23.0082 6.37556 23.9713 7.6428H26.6089C27.5173 8.41182 27.544 8.93786 26.6089 10.0746H17.2308C16.2558 11.3801 16.4643 11.7839 17.2308 12.3327H34.0822C35.0952 13.4178 35.1519 14.0269 34.0822 15.1119H29.9793C28.8624 15.9938 28.7485 16.4882 29.9793 17.37H37.8921C38.788 18.1927 38.6984 18.7829 37.8921 19.9755H12.8347C11.6316 21.0181 11.6584 21.5491 12.8347 22.4073H30.8584C32.2618 23.7029 31.9739 24.2683 30.8584 25.1865H20.4545C19.5375 25.9802 19.4509 26.4663 20.4545 27.4446H34.5218C35.2196 28.2835 35.1999 28.8446 34.5218 30.0501H26.6089C25.6279 31.0415 25.5475 31.512 26.6089 32.1345H31.5911C32.4862 33.4982 32.3468 34.1455 31.8842 35.2611H28.2208C27.1544 36.4 27.575 36.793 28.2208 37.5192L38.7713 37.1718L44.796 10.4004L50.7252 10.4976L57.8208 0Z" fill="url(#paint1_linear_21_713)"/>
</g>
<g filter="url(#filter3_d_21_713)">
<path d="M75.2734 24.896L83.7458 33.7977L88.2896 29.5756L83.9718 25.1226L75.2734 24.896Z" fill="#53759E"/>
</g>
<g filter="url(#filter4_d_21_713)">
<path d="M9.63876 50.31C8.8482 50.6016 8.0544 50.7474 7.25736 50.7474C6.46032 50.7474 5.8836 50.5886 5.5272 50.2711C5.17728 49.9536 5.00232 49.4643 5.00232 48.8034C5.00232 48.5247 5.04768 48.1132 5.1384 47.5689C5.3328 46.4414 5.67624 45.6282 6.16872 45.1292C6.6612 44.6302 7.47768 44.3808 8.61816 44.3808C8.8644 44.3808 9.1722 44.4067 9.54156 44.4585C9.91092 44.5104 10.1831 44.5687 10.358 44.6335L9.82344 46.1206C9.33744 46.0299 8.89032 45.9846 8.48208 45.9846C8.08032 45.9846 7.79196 46.017 7.617 46.0818C7.44204 46.1466 7.33836 46.2762 7.30596 46.4706L6.82968 49.2213H7.44204C7.66236 49.2213 7.82436 49.1986 7.92804 49.1533C8.0382 49.1014 8.10948 48.988 8.14188 48.8131L8.19048 48.5506H7.72392L7.98636 47.0635H10.2122L9.63876 50.31ZM4.86624 47.5203C4.85328 47.5722 4.84032 47.6434 4.82736 47.7342L1.0074 47.3259H4.8954L4.86624 47.5203ZM4.75932 48.259C4.73988 48.4081 4.73016 48.5442 4.73016 48.6673L0.90048 48.259H4.75932ZM5.12868 46.3928L5.01204 46.7913L1.24068 46.3928H5.12868ZM4.73988 49.1922C4.7658 49.3736 4.78848 49.5097 4.80792 49.6004L1.02684 49.1922H4.73988ZM5.5272 45.4597C5.43648 45.6282 5.37168 45.7578 5.3328 45.8485L1.69752 45.4597H5.5272ZM5.03148 50.135C5.11572 50.284 5.21292 50.4039 5.32308 50.4946L1.95996 50.135H5.03148ZM6.4506 44.5266C6.26268 44.6432 6.11688 44.7501 6.0132 44.8473L3.03888 44.5266H6.4506ZM15.7974 45.4597C16.7434 45.4597 17.2165 45.8874 17.2165 46.7427C17.2165 47.1315 17.1387 47.5365 16.9832 47.9577C16.8277 48.3724 16.5652 48.6835 16.1959 48.8908L16.7499 50.6016H14.9323L14.5629 49.1047H14.3296L14.0672 50.6016H12.4342L13.3285 45.4597H15.7974ZM15.4377 47.1412C15.4377 47.1348 15.441 47.1024 15.4474 47.044C15.4474 46.9339 15.2757 46.8788 14.9323 46.8788H14.7184L14.5629 47.773H14.874C15.172 47.773 15.3405 47.6758 15.3794 47.4814L15.4377 47.1412ZM12.1135 50.5724L7.99221 50.135H12.1912L12.1135 50.5724ZM12.444 48.6964L8.32269 48.259H12.5217L12.444 48.6964ZM12.6092 47.7633L8.48793 47.3259H12.687L12.6092 47.7633ZM12.7744 46.8302L8.65317 46.3928H12.8522L12.7744 46.8302ZM12.9397 45.8971L8.81841 45.4597H13.0077L12.9397 45.8971ZM12.2787 49.6296L8.15745 49.1922H12.3565L12.2787 49.6296ZM22.4041 45.3625C23.1039 45.3625 23.6029 45.4986 23.901 45.7707C24.199 46.0364 24.3481 46.4544 24.3481 47.0246C24.3481 47.3032 24.3124 47.6402 24.2412 48.0355C24.0792 48.9686 23.794 49.649 23.3858 50.0767C22.9776 50.5044 22.336 50.7182 21.4612 50.7182C20.7744 50.7182 20.2851 50.5854 19.9935 50.3197C19.7019 50.0475 19.5561 49.6296 19.5561 49.0658C19.5561 48.7742 19.5918 48.4308 19.663 48.0355C19.825 47.1024 20.1069 46.4252 20.5087 46.004C20.9104 45.5763 21.5422 45.3625 22.4041 45.3625ZM21.7431 49.2408C21.931 49.2408 22.0704 49.2181 22.1611 49.1727C22.2583 49.1274 22.3231 49.0269 22.3555 48.8714L22.7248 46.8399H22.1319C21.9505 46.8399 21.8079 46.8626 21.7042 46.908C21.607 46.9533 21.5487 47.0505 21.5293 47.1996L21.1696 49.2408H21.7431ZM19.3228 48.259C19.2969 48.4599 19.2807 48.596 19.2742 48.6673L15.4446 48.259H19.3228ZM19.5075 47.3259L19.42 47.7342L15.6195 47.3259H19.5075ZM19.2645 49.1922C19.2645 49.2958 19.2775 49.4319 19.3034 49.6004L15.4834 49.1922H19.2645ZM19.8477 46.3928C19.77 46.5613 19.7149 46.6909 19.6825 46.7816L16.0083 46.3928H19.8477ZM19.4686 50.135C19.5464 50.2905 19.6306 50.4104 19.7214 50.4946L16.3291 50.135H19.4686ZM20.6934 45.4597C20.5378 45.5504 20.405 45.6573 20.2948 45.7804L17.3108 45.4597H20.6934ZM27.2912 50.6016V45.4597H29.0602V48.2396H29.1088L30.1975 45.4597H31.6749V48.2396H31.7138L32.608 45.4597H34.4646L32.5692 50.6016H30.4599L30.3141 48.7839H30.2461L29.4976 50.6016H27.2912ZM26.9704 45.4597V45.8971L23.1505 45.4597H26.9704ZM26.9704 46.3928V46.8302L23.1505 46.3928H26.9704ZM26.9704 47.3259V47.7633L23.1505 47.3259H26.9704ZM26.9704 48.259V48.6964L23.1505 48.259H26.9704ZM26.9704 49.1922V49.6296L23.1505 49.1922H26.9704ZM26.9704 50.135V50.5724L23.1505 50.135H26.9704ZM42.944 50.6016H41L41.7193 46.4706H40.0961L40.3391 45.032L42.5455 44.5266H44.0035L42.944 50.6016ZM40.6987 50.5724L36.5774 50.135H40.7765L40.6987 50.5724ZM41.0292 48.6964L36.9079 48.259H41.107L41.0292 48.6964ZM41.1944 47.7633L37.0732 47.3259H41.2722L41.1944 47.7633ZM39.7364 46.8302L35.6152 46.3928H39.8142L39.7364 46.8302ZM39.892 45.8971L35.7707 45.4597H39.96L39.892 45.8971ZM40.864 49.6296L36.7427 49.1922H40.9417L40.864 49.6296ZM40.0572 44.8765L37.0246 44.5266H41.2236L40.0766 44.789L40.0572 44.8765ZM46.725 47.7633L42.6037 47.3259H46.8027L46.725 47.7633ZM46.6278 48.6964L42.5065 48.259H46.6666C46.6537 48.3692 46.6407 48.515 46.6278 48.6964ZM47.0263 46.3928L46.9096 46.8302L42.8272 46.3928H47.0263ZM46.6278 49.1922C46.6407 49.3477 46.6602 49.4935 46.6861 49.6296L42.5745 49.1922H46.6278ZM47.3859 45.4597C47.2952 45.6411 47.2304 45.7837 47.1915 45.8874L43.2063 45.4597H47.3859ZM48.2316 44.5266C48.0436 44.6497 47.8881 44.7825 47.765 44.9251L44.052 44.5266H48.2316ZM47.211 50.5724L43.0897 50.135H46.861C46.9518 50.31 47.0684 50.4558 47.211 50.5724ZM50.0978 44.3808C50.8495 44.3808 51.3808 44.5298 51.6919 44.8279C52.0029 45.1195 52.1584 45.5763 52.1584 46.1984C52.1584 46.5418 52.1066 46.9987 52.0029 47.5689C51.9057 48.1327 51.7923 48.5992 51.6627 48.9686C51.5331 49.3315 51.3549 49.6555 51.1281 49.9406C50.694 50.4784 49.9779 50.7474 48.98 50.7474C48.2283 50.7474 47.697 50.6016 47.3859 50.31C47.0749 50.0184 46.9194 49.5615 46.9194 48.9394C46.9194 48.5442 46.968 48.0776 47.0652 47.5398C47.1624 46.9954 47.2758 46.5386 47.4054 46.1692C47.5414 45.7999 47.7229 45.4759 47.9497 45.1972C48.3838 44.6529 49.0999 44.3808 50.0978 44.3808ZM49.0675 49.1824C49.3461 49.1824 49.547 49.1533 49.6701 49.095C49.7932 49.0302 49.8742 48.8876 49.9131 48.6673L50.3894 45.9457H49.952C49.6798 45.9457 49.4887 45.9748 49.3785 46.0332C49.2748 46.0915 49.2036 46.234 49.1647 46.4608L48.6787 49.1824H49.0675ZM54.2428 47.7633L50.1215 47.3259H54.3205L54.2428 47.7633ZM54.1456 48.6964L50.0243 48.259H54.1845C54.1715 48.3692 54.1585 48.515 54.1456 48.6964ZM54.5441 46.3928L54.4275 46.8302L50.3451 46.3928H54.5441ZM54.1456 49.1922C54.1585 49.3477 54.178 49.4935 54.2039 49.6296L50.0923 49.1922H54.1456ZM54.9037 45.4597C54.813 45.6411 54.7482 45.7837 54.7093 45.8874L50.7241 45.4597H54.9037ZM55.7494 44.5266C55.5615 44.6497 55.4059 44.7825 55.2828 44.9251L51.5698 44.5266H55.7494ZM54.7288 50.5724L50.6075 50.135H54.3789C54.4696 50.31 54.5862 50.4558 54.7288 50.5724ZM57.6156 44.3808C58.3673 44.3808 58.8987 44.5298 59.2097 44.8279C59.5207 45.1195 59.6763 45.5763 59.6763 46.1984C59.6763 46.5418 59.6244 46.9987 59.5207 47.5689C59.4235 48.1327 59.3101 48.5992 59.1805 48.9686C59.0509 49.3315 58.8727 49.6555 58.6459 49.9406C58.2118 50.4784 57.4957 50.7474 56.4978 50.7474C55.7461 50.7474 55.2148 50.6016 54.9037 50.31C54.5927 50.0184 54.4372 49.5615 54.4372 48.9394C54.4372 48.5442 54.4858 48.0776 54.583 47.5398C54.6802 46.9954 54.7936 46.5386 54.9232 46.1692C55.0593 45.7999 55.2407 45.4759 55.4675 45.1972C55.9017 44.6529 56.6177 44.3808 57.6156 44.3808ZM56.5853 49.1824C56.8639 49.1824 57.0648 49.1533 57.1879 49.095C57.3111 49.0302 57.3921 48.8876 57.4309 48.6673L57.9072 45.9457H57.4698C57.1977 45.9457 57.0065 45.9748 56.8963 46.0332C56.7927 46.0915 56.7214 46.234 56.6825 46.4608L56.1965 49.1824H56.5853ZM61.3329 50.135L61.0608 50.553L57.1339 50.135H61.3329ZM62.5674 48.259L62.2952 48.677L58.3683 48.259H62.5674ZM57.756 49.1922H61.955L61.6828 49.6101L57.756 49.1922ZM62.1202 45.8971L57.999 45.4597H61.9842L62.1202 45.8971ZM58.5822 47.3259H62.5576L62.6937 47.7633L58.5822 47.3259ZM58.3003 46.3928H62.2758L62.4118 46.8302L58.3003 46.3928ZM64.2295 45.4597L64.4822 46.6066H64.5697L65.2598 45.4597H67.126L65.425 48.0063L66.2318 50.6016H64.3267L64.0254 49.3963H63.9379L63.2186 50.6016H61.3718L63.0728 48.0063L62.2758 45.4597H64.2295Z" fill="#093B77"/>
</g>
<g filter="url(#filter5_d_21_713)">
<path d="M100.007 32.5515L100.877 28.8084L82.3145 46.0008L83.8918 47.4444L100.007 32.5515Z" fill="black"/>
<path d="M100.007 32.5515L100.877 28.8084L82.3145 46.0008L83.8918 47.4444L100.007 32.5515Z" fill="url(#paint2_linear_21_713)"/>
<path d="M101.339 26.8365L102.039 23.777L98.5002 24.3768L78.8094 42.5615L81.5109 45.176L101.339 26.8365Z" fill="black"/>
<path d="M101.339 26.8365L102.039 23.777L98.5002 24.3768L78.8094 42.5615L81.5109 45.176L101.339 26.8365Z" fill="url(#paint3_linear_21_713)"/>
<path d="M92.8418 25.4184L96.6883 24.6742L78.0834 41.8639L76.5962 40.3442L92.8418 25.4184Z" fill="black"/>
<path d="M92.8418 25.4184L96.6883 24.6742L78.0834 41.8639L76.5962 40.3442L92.8418 25.4184Z" fill="url(#paint4_linear_21_713)"/>
<path d="M77.1927 35.4822L80.3112 35.469L74.2938 40.9789L71.3105 40.8779L77.1927 35.4822Z" fill="black"/>
<path d="M77.1927 35.4822L80.3112 35.469L74.2938 40.9789L71.3105 40.8779L77.1927 35.4822Z" fill="url(#paint5_linear_21_713)"/>
<path d="M88.9173 46.9763L89.094 44.0889L83.0766 49.5988L83.0325 52.4127L88.9173 46.9763Z" fill="black"/>
<path d="M88.9173 46.9763L89.094 44.0889L83.0766 49.5988L83.0325 52.4127L88.9173 46.9763Z" fill="url(#paint6_linear_21_713)"/>
</g>
<g filter="url(#filter6_d_21_713)">
<path d="M95.1897 36.8962L90.6507 41.0988L93.3345 43.9642L102.005 44.3211L95.1897 36.8962Z" fill="#53759E"/>
</g>
<defs>
<filter id="filter0_d_21_713" x="47.657" y="0.0854492" width="41.7935" height="40.6529" filterUnits="userSpaceOnUse" color-interpolation-filters="sRGB">
<feFlood flood-opacity="0" result="BackgroundImageFix"/>
<feColorMatrix in="SourceAlpha" type="matrix" values="0 0 0 0 0 0 0 0 0 0 0 0 0 0 0 0 0 0 127 0" result="hardAlpha"/>
<feOffset dy="0.7776"/>
<feGaussianBlur stdDeviation="0.3888"/>
<feComposite in2="hardAlpha" operator="out"/>
<feColorMatrix type="matrix" values="0 0 0 0 0 0 0 0 0 0 0 0 0 0 0 0 0 0 0.25 0"/>
<feBlend mode="normal" in2="BackgroundImageFix" result="effect1_dropShadow_21_713"/>
<feBlend mode="normal" in="SourceGraphic" in2="effect1_dropShadow_21_713" result="shape"/>
</filter>
<filter id="filter1_d_21_713" x="70.3142" y="42.8389" width="11.2808" height="10.689" filterUnits="userSpaceOnUse" color-interpolation-filters="sRGB">
<feFlood flood-opacity="0" result="BackgroundImageFix"/>
<feColorMatrix in="SourceAlpha" type="matrix" values="0 0 0 0 0 0 0 0 0 0 0 0 0 0 0 0 0 0 127 0" result="hardAlpha"/>
<feOffset dy="0.7776"/>
<feGaussianBlur stdDeviation="0.3888"/>
<feComposite in2="hardAlpha" operator="out"/>
<feColorMatrix type="matrix" values="0 0 0 0 0 0 0 0 0 0 0 0 0 0 0 0 0 0 0.25 0"/>
<feBlend mode="normal" in2="BackgroundImageFix" result="effect1_dropShadow_21_713"/>
<feBlend mode="normal" in="SourceGraphic" in2="effect1_dropShadow_21_713" result="shape"/>
</filter>
<filter id="filter2_d_21_713" x="11.1648" y="0" width="47.4331" height="39.0742" filterUnits="userSpaceOnUse" color-interpolation-filters="sRGB">
<feFlood flood-opacity="0" result="BackgroundImageFix"/>
<feColorMatrix in="SourceAlpha" type="matrix" values="0 0 0 0 0 0 0 0 0 0 0 0 0 0 0 0 0 0 127 0" result="hardAlpha"/>
<feOffset dy="0.7776"/>
<feGaussianBlur stdDeviation="0.3888"/>
<feComposite in2="hardAlpha" operator="out"/>
<feColorMatrix type="matrix" values="0 0 0 0 0 0 0 0 0 0 0 0 0 0 0 0 0 0 0.25 0"/>
<feBlend mode="normal" in2="BackgroundImageFix" result="effect1_dropShadow_21_713"/>
<feBlend mode="normal" in="SourceGraphic" in2="effect1_dropShadow_21_713" result="shape"/>
</filter>
<filter id="filter3_d_21_713" x="74.4958" y="24.896" width="14.5718" height="10.4571" filterUnits="userSpaceOnUse" color-interpolation-filters="sRGB">
<feFlood flood-opacity="0" result="BackgroundImageFix"/>
<feColorMatrix in="SourceAlpha" type="matrix" values="0 0 0 0 0 0 0 0 0 0 0 0 0 0 0 0 0 0 127 0" result="hardAlpha"/>
<feOffset dy="0.7776"/>
<feGaussianBlur stdDeviation="0.3888"/>
<feComposite in2="hardAlpha" operator="out"/>
<feColorMatrix type="matrix" values="0 0 0 0 0 0 0 0 0 0 0 0 0 0 0 0 0 0 0.25 0"/>
<feBlend mode="normal" in2="BackgroundImageFix" result="effect1_dropShadow_21_713"/>
<feBlend mode="normal" in="SourceGraphic" in2="effect1_dropShadow_21_713" result="shape"/>
</filter>
<filter id="filter4_d_21_713" x="0.122791" y="44.3809" width="67.7808" height="7.9219" filterUnits="userSpaceOnUse" color-interpolation-filters="sRGB">
<feFlood flood-opacity="0" result="BackgroundImageFix"/>
<feColorMatrix in="SourceAlpha" type="matrix" values="0 0 0 0 0 0 0 0 0 0 0 0 0 0 0 0 0 0 127 0" result="hardAlpha"/>
<feOffset dy="0.7776"/>
<feGaussianBlur stdDeviation="0.3888"/>
<feComposite in2="hardAlpha" operator="out"/>
<feColorMatrix type="matrix" values="0 0 0 0 0 0 0 0 0 0 0 0 0 0 0 0 0 0 0.25 0"/>
<feBlend mode="normal" in2="BackgroundImageFix" result="effect1_dropShadow_21_713"/>
<feBlend mode="normal" in="SourceGraphic" in2="effect1_dropShadow_21_713" result="shape"/>
</filter>
<filter id="filter5_d_21_713" x="70.5329" y="23.7769" width="32.2837" height="30.1909" filterUnits="userSpaceOnUse" color-interpolation-filters="sRGB">
<feFlood flood-opacity="0" result="BackgroundImageFix"/>
<feColorMatrix in="SourceAlpha" type="matrix" values="0 0 0 0 0 0 0 0 0 0 0 0 0 0 0 0 0 0 127 0" result="hardAlpha"/>
<feOffset dy="0.7776"/>
<feGaussianBlur stdDeviation="0.3888"/>
<feComposite in2="hardAlpha" operator="out"/>
<feColorMatrix type="matrix" values="0 0 0 0 0 0 0 0 0 0 0 0 0 0 0 0 0 0 0.25 0"/>
<feBlend mode="normal" in2="BackgroundImageFix" result="effect1_dropShadow_21_713"/>
<feBlend mode="normal" in="SourceGraphic" in2="effect1_dropShadow_21_713" result="shape"/>
</filter>
<filter id="filter6_d_21_713" x="89.8728" y="36.896" width="12.9097" height="8.98049" filterUnits="userSpaceOnUse" color-interpolation-filters="sRGB">
<feFlood flood-opacity="0" result="BackgroundImageFix"/>
<feColorMatrix in="SourceAlpha" type="matrix" values="0 0 0 0 0 0 0 0 0 0 0 0 0 0 0 0 0 0 127 0" result="hardAlpha"/>
<feOffset dy="0.7776"/>
<feGaussianBlur stdDeviation="0.3888"/>
<feComposite in2="hardAlpha" operator="out"/>
<feColorMatrix type="matrix" values="0 0 0 0 0 0 0 0 0 0 0 0 0 0 0 0 0 0 0.25 0"/>
<feBlend mode="normal" in2="BackgroundImageFix" result="effect1_dropShadow_21_713"/>
<feBlend mode="normal" in="SourceGraphic" in2="effect1_dropShadow_21_713" result="shape"/>
</filter>
<linearGradient id="paint0_linear_21_713" x1="67.7354" y1="1.55518" x2="67.7354" y2="37.7136" gradientUnits="userSpaceOnUse">
<stop stop-color="#0D74BD"/>
<stop offset="0.8" stop-color="#DB6736"/>
</linearGradient>
<linearGradient id="paint1_linear_21_713" x1="34.8816" y1="34.0456" x2="34.8816" y2="3.4736" gradientUnits="userSpaceOnUse">
<stop stop-color="#DB6736"/>
<stop offset="0.978986" stop-color="#0D74BD"/>
</linearGradient>
<linearGradient id="paint2_linear_21_713" x1="87.2534" y1="22.8721" x2="85.4365" y2="52.5598" gradientUnits="userSpaceOnUse">
<stop stop-color="#F2C31E" stop-opacity="0.79"/>
<stop offset="0.3" stop-color="#DB6736"/>
</linearGradient>
<linearGradient id="paint3_linear_21_713" x1="87.2534" y1="22.8721" x2="85.4365" y2="52.5598" gradientUnits="userSpaceOnUse">
<stop stop-color="#F2C31E" stop-opacity="0.79"/>
<stop offset="0.3" stop-color="#DB6736"/>
</linearGradient>
<linearGradient id="paint4_linear_21_713" x1="87.2534" y1="22.8721" x2="85.4365" y2="52.5598" gradientUnits="userSpaceOnUse">
<stop stop-color="#F2C31E" stop-opacity="0.79"/>
<stop offset="0.3" stop-color="#DB6736"/>
</linearGradient>
<linearGradient id="paint5_linear_21_713" x1="87.2534" y1="22.8721" x2="85.4365" y2="52.5598" gradientUnits="userSpaceOnUse">
<stop stop-color="#F2C31E" stop-opacity="0.79"/>
<stop offset="0.3" stop-color="#DB6736"/>
</linearGradient>
<linearGradient id="paint6_linear_21_713" x1="87.2534" y1="22.8721" x2="85.4365" y2="52.5598" gradientUnits="userSpaceOnUse">
<stop stop-color="#F2C31E" stop-opacity="0.79"/>
<stop offset="0.3" stop-color="#DB6736"/>
</linearGradient>
</defs>
</svg>
